<svg xmlns="http://www.w3.org/2000/svg" viewBox="0 0 460.507 759.314"><defs><style>.a,.d{fill:none;}.a,.b{stroke:#000;}.a{stroke-width:3px;}.b{fill:#fff;}.c{stroke:none;}</style></defs><g transform="translate(428.093 85.885)"><g transform="translate(-68 4)"><path class="a" d="M-181.911,126.477c-.7.021-1.344.808-2.384,1.025-7.657,1.574-18.475,10.525-30,22.6-27.673,28.978-58.8,75.939-58.8,75.939s-59.445,153.846-49.977,189.349,4.5,70.842,4.5,70.842-13.865,36.017-29.642,41.913-17.371,25.021-17.371,25.021,2.55,25.658,11.793,47.651,14.024,23.746,14.024,23.746l21.036,13.706,24.383,15.14s17.849,14.024,31.555,14.5,15.777-5.578,17.461-6.056,1.026-4.462,1.185-12.431-10.359-23.427-10.359-23.427-24.542-15.14-28.15-16.734-7.548-22.789-7.548-22.789l.956-22.949,6.592,5.893s7.283,3.186,9.559,5.335,27.765,0,27.765,0l91.944-7.541s69.641,4.026,74.192,4.848,11.379,0,11.379,0,5.007,1.454,11.834,2.693,19.117-14.439,21.848-14.544,0-17.776,0-17.776l-17.327-11.781-7.252-4.931H-82.385s-17.752-10.014-21.848-10.924,0-14.565,0-14.565S-82.84,478.836-79.2,476.56s0-14.251,0-14.251l-5.917-37.638,55.953,105.938,21.891,41.447s10.235,1.616,15.082,2.693,25.317-1.077,26.394,0,13.488,0,13.488,0,8.6.269,11.829,0,4.04-7.541,5.117-7.541,4.04-4.579,4.04-4.579,7.272-1.616,9.7-2.424,2.693-13.736,3.232-17.776-4.848-11.851-4.848-11.851-19.93-8.619-21.277-8.619-7.789-25.586-7.789-25.586V462.309S76.154,312.308,80,309.231s4.615-111.539,9.668-120.77,0-70,0-70S71.656,47.936,39.606,15.886" transform="translate(7)"/><path class="a" d="M52,574.925s.7-.754,3.887,0a6.156,6.156,0,0,0,4.964-.873c1.854-1.18,2.577-5.553,4.093-6.677,3.747-2.779,3.186-3.577,4.093-5.17a13.43,13.43,0,0,0,1.562-4.263c.637-5.1-17.69-24.383-17.69-24.383S35.048,532.09,30.5,527.538s-48.248-148.384-44.151-191.17a307.885,307.885,0,0,1,17.3-76.013" transform="translate(7)"/><path class="a" d="M122.1,226.42a3.028,3.028,0,0,1-.392-.023,17.163,17.163,0,0,1-6.643-2.425,23.568,23.568,0,0,1-4.85-4,27.872,27.872,0,0,1-3.983-5.405H96.675L74.24,189.928l8.378,8.465H89.69l6.6-7.921L86.2,188.114l-12.587,1.128-.153-.168,6.373-20.938V133.088L68,117.157l33.682-61.9L68-.731a4.3,4.3,0,0,1,2.04-1.635C71.579-3.111,74.565-4,80.06-4c5.9,0,13.489,1,22.558,2.984A366.222,366.222,0,0,1,143.1,10.831l4.1,23.941L143.1,1.09l.013-.005c.429-.139,2.76-.875,6.529-1.7a116.092,116.092,0,0,1,17.126-2.389c.279-.019.574-.028.876-.028,5.521,0,12.474,3.2,21.255,9.773,2.708,2.028,5.2,4.079,7.205,5.727,2.856,2.349,4.919,4.046,5.6,4.046a.237.237,0,0,0,.175-.061.62.62,0,0,1,.4-.082,35.63,35.63,0,0,1,6.02,1.288c8.993,2.453,26.72,8.211,52.69,17.116,7.255,2.487,14.223,15.067,21.6,28.386,4.408,7.958,8.964,16.184,13.814,22.67,5.482,7.33,10.574,11.325,15.565,12.212a4.186,4.186,0,0,1,3.306,2.6c1.588,3.726-.038,11.363-4.832,22.7a333.964,333.964,0,0,1-17.418,34.014c-12.877,22.515-26.874,43.57-27.463,44.455l-.007.01H189.529L137.823,222.7l-.011,0C136.539,223.087,125.284,226.42,122.1,226.42Zm8.676-108.2-14.342,8.336c-.02.013-2.019,1.571-7.11,21.552h14.22l8.213-5.738,7.6-8.7,9.194-12.014-17.776-3.432h0Z" transform="translate(-268.556 -84.385)"/><path class="a" d="M-28.358,530.552V530.4c.429,0-3.162.147-9.772.151-2.939,0-6.893-.035-11.386-.151-4.008-.643-8.05-4.969-10.327-5.32-5.024-.773-14.615,1.781-21,0-11.107-3.1-21.953-9-22.682-12.041,1.539-2.374-1.812-10.73,0-13.441,8.786-13.148,26.4-26.317,27.442-26.322.326,0-7.872-44.849-7.281-44.8,8.939.627,39.757,75.735,51.312,96.863,1.7,3.11,3.037,5.065,3.694,5.065" transform="translate(5.798 0.246)"/><path class="a" d="M-270.369,350.478c14.11-25.489,55.985-37.324,55.985-37.324s59.627-22.3,77.833-4.552,37.779,41.875,37.779,41.875l14.11,75.1" transform="translate(7)"/><path class="a" d="M-136.837,246.7c37.155,103.778,29.573,81.247,39.431,108.33" transform="translate(7)"/><line class="a" x2="21" y2="29" transform="translate(-2.5 117.5)"/><line class="a" y1="32" transform="translate(-2.5 117.5)"/><path class="a" d="M-9.5,149.5s-26.913,3.506-100.44-21.353" transform="translate(7)"/><path class="a" d="M11.5,146.5c6.15-5.913,15.049-23.084,22.725-43.227C46.111,72.08,54.883,33.807,44.829,21.4" transform="translate(7)"/><path class="a" d="M-74.314-68.068s5.385,1.723,9.047,12.278-10.124,20.463-9.047,24.771S-69.36-22.4-69.36-22.4" transform="translate(7)"/></g><g transform="translate(-455 -211)"><g class="b" transform="translate(276 141)"><ellipse class="c" cx="13.614" cy="13.15" rx="13.614" ry="13.15"/><ellipse class="d" cx="13.614" cy="13.15" rx="13.114" ry="12.65"/></g><path class="b" d="M327.754,218.854c.954.157,3.484-1.764,3.484-1.764s3.94-3.763,3.857-3.881a17.538,17.538,0,0,1,3.36-2.744c.622-.235,1.161-.862,1.825-.549s-.622,2.234-.622,2.234-4.977,4.587-5.973,4.939S327.754,218.854,327.754,218.854Z" transform="translate(-41.393 -55.806)"/><path class="b" d="M332.581,189.99c.225-.862-.771-1.921-.771-1.921a7.331,7.331,0,0,0-3.277-2.587,10.218,10.218,0,0,0-5.516-.549c-2.862.431-2.827.429-2.827.429l-.2.119-.954,1.333-1.078.745a8.93,8.93,0,0,0,0,1.49,10.711,10.711,0,0,0,.249,3.724,7.493,7.493,0,0,0,1.244,2.862,17.719,17.719,0,0,1,.539,3.058" transform="translate(-33.504 -35.488)"/><path class="b" d="M307.756,177.545l-.448-.084v-.243a4.241,4.241,0,0,1-.592.106.464.464,0,0,1-.257-.422c.045-.137-.458-.3-.458-.3s-.346-.243-.257-.317.156-.211.257-.264-.38-.232-.38-.232-.257-.391.123-.433.156-.433.156-.433l-.581-.042s-.391-.253.369-.422,0-.306,0-.306l-.179-.084s-.212-.19-.123-.275a1.031,1.031,0,0,1,.447-.222c.145-.021.413-.38.235-.38s-.335-.475-.235-.538.581-.021.581.053.38-.158.3-.243-.458-.57-.3-.633.637.327.782.264-.436-.454-.145-.538a.465.465,0,0,1,.48.2s.458.032.279-.2.369-.5.413-.391.168.338.29.275.2-.507.413-.391a1.179,1.179,0,0,1,.413.391c.1.137.48-.053.48-.053l.357-.084a1.289,1.289,0,0,1,.19.454c.011.179.48-.063.48-.063h.335a2.647,2.647,0,0,1,.078.4c.011.158.447-.063.447-.063s.235-.148.268.3.3.211.3.211.3.063.235.549.235.486.235.486.212.127,0,.222" transform="translate(-23.369 -24.35)"/><path class="b" d="M323.855,238.516a3.217,3.217,0,0,0,1.322-.076" transform="translate(-37.874 -78.246)"/><path class="b" d="M326.156,240.395a3.146,3.146,0,0,0,1.418-.433,2.9,2.9,0,0,0,.6-.942" transform="translate(-39.97 -79.473)"/></g></g></svg>