<svg xmlns="http://www.w3.org/2000/svg" viewBox="0 0 100 100"><defs><style>.a,.b,.f{fill:none;}.a{stroke-linecap:round;}.b,.c{stroke:#000;}.b{stroke-width:3px;}.c{fill:#fff;}.d,.e{stroke:none;}</style></defs><g transform="translate(214.997 96)"><g class="a" transform="translate(-214.997 -96)"><path class="d" d="M8.857,0H91.143A8.857,8.857,0,0,1,100,8.857V91.143A8.857,8.857,0,0,1,91.143,100H8.857A8.857,8.857,0,0,1,0,91.143V8.857A8.857,8.857,0,0,1,8.857,0Z"/><path class="e" d="M 8.857147216796875 5 C 6.730308532714844 5 5 6.730308532714844 5 8.857147216796875 L 5 91.14287567138672 C 5 93.26969146728516 6.730308532714844 95 8.857147216796875 95 L 91.14285278320313 95 C 93.26969146728516 95 95 93.26969146728516 95 91.14287567138672 L 95 8.857147216796875 C 95 6.730308532714844 93.26969146728516 5 91.14285278320313 5 L 8.857147216796875 5 M 8.857147216796875 0 L 91.14285278320313 0 C 96.03450775146484 0 100 3.965469360351563 100 8.857147216796875 L 100 91.14287567138672 C 100 96.03453063964844 96.03450775146484 100 91.14285278320313 100 L 8.857147216796875 100 C 3.965469360351563 100 0 96.03453063964844 0 91.14287567138672 L 0 8.857147216796875 C 0 3.965469360351563 3.965469360351563 0 8.857147216796875 0 Z"/></g><g transform="translate(-68 4)"><path class="b" d="M-132.454-73.554c-18.694-5.493-17.589-4.512-17.589-4.512s15.537,4.219,17.589,4.512c-.055-1.658-.013-8.451,0-9.742,2.48-1.057,12.191-3.373,14.9-3.17,2.445.183,13.493-1.295,16.442,0,1.28.56,3.993,2.261,5.608,3.17a40.216,40.216,0,0,1,6.142,3.65c1.98,1.435,5.165,4.894,6.782,5.172.354.226,3.961,4.609,8.908,6.539,8.51,3.32,20.428,4.97,17.064,4.053s-16.755-4.361-17.064-4.053c-.538.538-3.913-2.51-8.908-6.539-7.074-5.706-17.655-13.47-26.206-12.918a103.289,103.289,0,0,0-23.669,4.1l4.1,33.682Z" transform="translate(7)"/><path class="b" d="M-74.314-68.068s5.385,1.723,9.047,12.278-10.124,20.463-9.047,24.771S-69.36-22.4-69.36-22.4" transform="translate(7)"/></g><g transform="translate(-455 -211)"><g class="c" transform="translate(276 141)"><ellipse class="d" cx="13.614" cy="13.15" rx="13.614" ry="13.15"/><ellipse class="f" cx="13.614" cy="13.15" rx="13.114" ry="12.65"/></g><path class="c" d="M327.754,218.854c.954.157,3.484-1.764,3.484-1.764s3.94-3.763,3.857-3.881a17.538,17.538,0,0,1,3.36-2.744c.622-.235,1.161-.862,1.825-.549s-.622,2.234-.622,2.234-4.977,4.587-5.973,4.939S327.754,218.854,327.754,218.854Z" transform="translate(-41.393 -55.806)"/><path class="c" d="M332.581,189.99c.225-.862-.771-1.921-.771-1.921a7.331,7.331,0,0,0-3.277-2.587,10.218,10.218,0,0,0-5.516-.549c-2.862.431-2.827.429-2.827.429l-.2.119-.954,1.333-1.078.745a8.93,8.93,0,0,0,0,1.49,10.711,10.711,0,0,0,.249,3.724,7.493,7.493,0,0,0,1.244,2.862,17.719,17.719,0,0,1,.539,3.058" transform="translate(-33.504 -35.488)"/><path class="c" d="M307.756,177.545l-.448-.084v-.243a4.241,4.241,0,0,1-.592.106.464.464,0,0,1-.257-.422c.045-.137-.458-.3-.458-.3s-.346-.243-.257-.317.156-.211.257-.264-.38-.232-.38-.232-.257-.391.123-.433.156-.433.156-.433l-.581-.042s-.391-.253.369-.422,0-.306,0-.306l-.179-.084s-.212-.19-.123-.275a1.031,1.031,0,0,1,.447-.222c.145-.021.413-.38.235-.38s-.335-.475-.235-.538.581-.021.581.053.38-.158.3-.243-.458-.57-.3-.633.637.327.782.264-.436-.454-.145-.538a.465.465,0,0,1,.48.2s.458.032.279-.2.369-.5.413-.391.168.338.29.275.2-.507.413-.391a1.179,1.179,0,0,1,.413.391c.1.137.48-.053.48-.053l.357-.084a1.289,1.289,0,0,1,.19.454c.011.179.48-.063.48-.063h.335a2.647,2.647,0,0,1,.078.4c.011.158.447-.063.447-.063s.235-.148.268.3.3.211.3.211.3.063.235.549.235.486.235.486.212.127,0,.222" transform="translate(-23.369 -24.35)"/><path class="c" d="M323.855,238.516a3.217,3.217,0,0,0,1.322-.076" transform="translate(-37.874 -78.246)"/><path class="c" d="M326.156,240.395a3.146,3.146,0,0,0,1.418-.433,2.9,2.9,0,0,0,.6-.942" transform="translate(-39.97 -79.473)"/></g></g></svg>